<svg xmlns="http://www.w3.org/2000/svg" xmlns:svg="http://www.w3.org/2000/svg" xmlns:xlink="http://www.w3.org/1999/xlink" id="svg2619" width="1024" height="768" version="1.0"><defs id="defs2621"><filter id="filter4135"><feGaussianBlur id="feGaussianBlur4137" stdDeviation=".747"/></filter><filter id="filter4006"><feGaussianBlur id="feGaussianBlur4008" stdDeviation="1.65"/></filter><linearGradient id="linearGradient3538" x1="61.429" x2="116.429" y1="362.143" y2="408.571" gradientTransform="matrix(1.091261,0,0,1.091261,79.238251,-55.750939)" gradientUnits="userSpaceOnUse" xlink:href="#linearGradient3312"/><filter id="filter3573"><feGaussianBlur id="feGaussianBlur3575" stdDeviation="1.628"/></filter><filter id="filter3469"><feGaussianBlur id="feGaussianBlur3471" stdDeviation="2.712"/></filter><filter id="filter3965"><feGaussianBlur id="feGaussianBlur3967" stdDeviation="2.474"/></filter><pattern id="pattern4486" patternTransform="matrix(0.4295427,0,0,0.4295427,-4.3554687e-6,-4.3457032e-7)" xlink:href="#pattern4481"/><pattern id="pattern4481" patternTransform="matrix(0.4295427,0,0,0.4295427,-130.66779,-129.37468)" xlink:href="#pattern4467"/><linearGradient id="linearGradient3588"><stop id="stop3590" offset="0" stop-color="#bfe699" stop-opacity="1"/><stop id="stop3592" offset="1" stop-color="#313e24" stop-opacity="1"/></linearGradient><linearGradient id="linearGradient3570"><stop id="stop3572" offset="0" stop-color="#e5ffcb" stop-opacity="1"/><stop id="stop3574" offset="1" stop-color="#bfff80" stop-opacity="1"/></linearGradient><linearGradient id="linearGradient3303"><stop id="stop3305" offset="0" stop-color="#bfff80" stop-opacity="1"/><stop id="stop3307" offset="1" stop-color="#6a8b4a" stop-opacity="1"/></linearGradient><linearGradient id="linearGradient3431"><stop id="stop3433" offset="0" stop-color="#3d3d3d" stop-opacity="1"/><stop id="stop3435" offset="1" stop-color="#000" stop-opacity=".114"/></linearGradient><linearGradient id="linearGradient3349"><stop id="stop3351" offset="0" stop-color="#d3d3d3" stop-opacity="1"/><stop id="stop3353" offset="1" stop-color="#fff" stop-opacity="1"/></linearGradient><linearGradient id="linearGradient3312"><stop id="stop3314" offset="0" stop-color="#c7f994" stop-opacity="1"/><stop id="stop3316" offset="1" stop-color="#87cf3e" stop-opacity="1"/></linearGradient><linearGradient id="linearGradient3335" x1="61.429" x2="116.429" y1="362.143" y2="408.571" gradientUnits="userSpaceOnUse" xlink:href="#linearGradient3312"/><linearGradient id="linearGradient3374" x1="140.664" x2="67.175" y1="424.332" y2="348.571" gradientUnits="userSpaceOnUse" xlink:href="#linearGradient3349"/><linearGradient id="linearGradient3377" x1="61.429" x2="116.429" y1="362.143" y2="408.571" gradientTransform="translate(0,-9.49911)" gradientUnits="userSpaceOnUse" xlink:href="#linearGradient3312"/><linearGradient id="linearGradient3398" x1="61.429" x2="116.429" y1="362.143" y2="408.571" gradientTransform="translate(0,-9.49911)" gradientUnits="userSpaceOnUse" xlink:href="#linearGradient3312"/><linearGradient id="linearGradient3400" x1="140.664" x2="67.175" y1="424.332" y2="348.571" gradientUnits="userSpaceOnUse" xlink:href="#linearGradient3349"/><linearGradient id="linearGradient3416" x1="61.429" x2="116.429" y1="362.143" y2="408.571" gradientTransform="matrix(1,0,0,-1,0,649.49911)" gradientUnits="userSpaceOnUse" xlink:href="#linearGradient3312"/><linearGradient id="linearGradient2254" x1="140.664" x2="67.175" y1="424.332" y2="348.571" gradientUnits="userSpaceOnUse" xlink:href="#linearGradient3349"/><linearGradient id="linearGradient2259" x1="70.492" x2="113.642" y1="416.389" y2="375.88" gradientUnits="userSpaceOnUse" spreadMethod="pad" xlink:href="#linearGradient3431"/><linearGradient id="linearGradient2262" x1="61.429" x2="116.429" y1="362.143" y2="408.571" gradientTransform="translate(0,-9.49911)" gradientUnits="userSpaceOnUse" xlink:href="#linearGradient3312"/><filter id="filter3291"><feGaussianBlur id="feGaussianBlur3293" stdDeviation=".401"/></filter><linearGradient id="linearGradient3311" x1="61.429" x2="116.429" y1="362.143" y2="408.571" gradientTransform="translate(0,-9.49911)" gradientUnits="userSpaceOnUse" xlink:href="#linearGradient3312"/><linearGradient id="linearGradient3313" x1="70.492" x2="113.642" y1="416.389" y2="375.88" gradientUnits="userSpaceOnUse" spreadMethod="pad" xlink:href="#linearGradient3431"/><linearGradient id="linearGradient3315" x1="140.664" x2="67.175" y1="424.332" y2="348.571" gradientUnits="userSpaceOnUse" xlink:href="#linearGradient3349"/><linearGradient id="linearGradient3318" x1="140.664" x2="67.175" y1="424.332" y2="348.571" gradientUnits="userSpaceOnUse" xlink:href="#linearGradient3349"/><filter id="filter3546"><feGaussianBlur id="feGaussianBlur3548" stdDeviation=".16"/></filter><filter id="filter3558"><feGaussianBlur id="feGaussianBlur3560" stdDeviation=".259"/></filter><linearGradient id="linearGradient3737" x1="26.795" x2="149.907" y1="216.349" y2="323.987" gradientUnits="userSpaceOnUse" xlink:href="#linearGradient3588"/><filter id="filter4363"><feGaussianBlur id="feGaussianBlur4365" stdDeviation="2.411"/></filter><pattern id="pattern4467" width="256" height="256" patternTransform="translate(-297.8418,85.357452)" patternUnits="userSpaceOnUse"><image id="image4464" width="256" height="256" x="0" y="0" xlink:href="metal5.jpg"/></pattern><pattern id="pattern4483" width="109.963" height="109.963" patternTransform="translate(-130.66779,-129.37468)" patternUnits="userSpaceOnUse"><rect id="rect4470" width="109.963" height="109.963" x="0" y="0" fill="url(#pattern4486)" stroke="none"/></pattern><linearGradient id="linearGradient2994" x1="70.492" x2="113.642" y1="416.389" y2="375.88" gradientTransform="translate(0,80)" gradientUnits="userSpaceOnUse" spreadMethod="pad" xlink:href="#linearGradient3431"/><linearGradient id="linearGradient3000" x1="148.595" x2="100.47" y1="426.114" y2="379.96" gradientTransform="matrix(1.0484996,0,0,1.0484996,59.525242,85.095989)" gradientUnits="userSpaceOnUse" xlink:href="#linearGradient3349"/><linearGradient id="linearGradient3006" x1="61.429" x2="116.429" y1="362.143" y2="408.571" gradientTransform="matrix(1.0484996,0,0,1.0484996,59.525242,75.136176)" gradientUnits="userSpaceOnUse" xlink:href="#linearGradient3312"/><linearGradient id="linearGradient4003" x1="61.429" x2="116.429" y1="362.143" y2="408.571" gradientTransform="matrix(1.0484996,0,0,1.0484996,210.01137,213.49817)" gradientUnits="userSpaceOnUse" xlink:href="#linearGradient3312"/><linearGradient id="linearGradient4005" x1="70.492" x2="113.642" y1="416.389" y2="375.88" gradientTransform="translate(0,80)" gradientUnits="userSpaceOnUse" spreadMethod="pad" xlink:href="#linearGradient3431"/><linearGradient id="linearGradient4007" x1="148.595" x2="100.47" y1="426.114" y2="379.96" gradientTransform="matrix(1.0484996,0,0,1.0484996,210.01137,223.45798)" gradientUnits="userSpaceOnUse" xlink:href="#linearGradient3349"/><linearGradient id="linearGradient2992" x1="47.556" x2="141.374" y1="131.833" y2="207.526" gradientTransform="matrix(1.0417465,0,0,1.0417465,81.266854,19.855591)" gradientUnits="userSpaceOnUse" xlink:href="#linearGradient3312"/><linearGradient id="linearGradient2995" x1="70.492" x2="113.642" y1="416.389" y2="375.88" gradientTransform="translate(-11.825686,-215.33459)" gradientUnits="userSpaceOnUse" spreadMethod="pad" xlink:href="#linearGradient3431"/><linearGradient id="linearGradient2997" x1="93.413" x2="95.111" y1="209.621" y2="116.208" gradientTransform="matrix(1.0417465,0,0,1.0417465,81.266854,19.855591)" gradientUnits="userSpaceOnUse" xlink:href="#linearGradient3349"/><linearGradient id="linearGradient2999" x1="70.492" x2="113.642" y1="416.389" y2="375.88" gradientTransform="translate(0,80)" gradientUnits="userSpaceOnUse" spreadMethod="pad" xlink:href="#linearGradient3431"/><linearGradient id="linearGradient3001" x1="61.429" x2="116.429" y1="362.143" y2="408.571" gradientTransform="matrix(1.091261,0,0,1.091261,67.062859,-117.80387)" gradientUnits="userSpaceOnUse" xlink:href="#linearGradient3312"/><linearGradient id="linearGradient3003" x1="70.492" x2="113.642" y1="416.389" y2="375.88" gradientTransform="translate(0,80)" gradientUnits="userSpaceOnUse" spreadMethod="pad" xlink:href="#linearGradient3431"/><linearGradient id="linearGradient3005" x1="47.556" x2="141.374" y1="131.833" y2="207.526" gradientTransform="matrix(1.0417465,0,0,1.0417465,81.266854,19.855591)" gradientUnits="userSpaceOnUse" xlink:href="#linearGradient3312"/><linearGradient id="linearGradient3007" x1="70.492" x2="113.642" y1="416.389" y2="375.88" gradientTransform="translate(-11.825686,-215.33459)" gradientUnits="userSpaceOnUse" spreadMethod="pad" xlink:href="#linearGradient3431"/><linearGradient id="linearGradient3009" x1="93.413" x2="95.111" y1="209.621" y2="116.208" gradientTransform="matrix(1.0417465,0,0,1.0417465,81.266854,19.855591)" gradientUnits="userSpaceOnUse" xlink:href="#linearGradient3349"/><linearGradient id="linearGradient2659" x1="61.429" x2="116.429" y1="362.143" y2="408.571" gradientTransform="matrix(1.091261,0,0,1.091261,79.238251,-55.750939)" gradientUnits="userSpaceOnUse" xlink:href="#linearGradient3312"/><linearGradient id="linearGradient2661" x1="70.492" x2="113.642" y1="416.389" y2="375.88" gradientTransform="translate(0,80)" gradientUnits="userSpaceOnUse" spreadMethod="pad" xlink:href="#linearGradient3431"/></defs><metadata id="metadata2624"/><g id="layer1"><g id="g2650" transform="matrix(6.5972926,0,0,6.5972926,-735.85177,-2072.0441)"><path marker-end="none" style="marker:none" id="path3543" fill="#000" fill-opacity="1" fill-rule="evenodd" stroke="none" stroke-dasharray="none" stroke-dashoffset="0" stroke-linecap="butt" stroke-linejoin="miter" stroke-miterlimit="4" stroke-opacity="1" stroke-width="1" marker-mid="none" marker-start="none" d="M 331.79042,510.93347 C 310.5003,510.93347 292.02462,494.79355 292.02462,473.52251 L 292.0055,451.53024 L 292.0055,444.9442 L 278.50774,444.9442 L 278.50774,408.2929 L 335.4281,408.56096 L 353.23367,408.59927 C 374.54293,408.59927 392.99946,424.71998 392.99946,446.01013 L 392.99946,510.93347 L 331.79042,510.93347 L 331.79042,510.93347 L 331.79042,510.93347 z" display="inline" enable-background="accumulate" filter="url(#filter3573)" opacity=".26" overflow="visible" transform="matrix(1.0429295,0,0,1.0429295,-163.96565,-107.54293)" visibility="visible"/><path id="path2576" fill="url(#linearGradient2659)" fill-opacity="1" fill-rule="evenodd" d="M 237.71259,407.73851 C 237.71259,393.01827 237.71259,358.2933 237.71259,358.2933 C 237.71259,341.77424 223.22599,328.3835 205.35182,328.3835 L 186.80016,328.3835 L 186.80016,328.34364 L 136.62498,328.1244 L 136.62498,346.16533 C 136.62498,346.16533 140.72184,346.16533 144.32718,346.16533 C 149.70349,346.16533 150.65327,349.87669 150.65327,355.01364 L 150.69314,386.90796 C 150.69314,403.42703 165.1798,416.81775 183.03402,416.81775 L 227.11605,416.81775 C 232.7674,416.81775 237.71259,413.2388 237.71259,407.73851 z" display="inline"/><path id="path3419" fill="url(#linearGradient2661)" fill-opacity="1" fill-rule="nonzero" d="M 142.9375,500.53125 C 132.18568,493.1219 124.57068,484.61091 118.15625,473.34375 C 105.51181,449.98566 108.46834,438.39049 77.15625,435.65625 C 68.119961,435.65625 62.105033,433.65625 52.59375,433.65625 L 52.59375,436.96875 C 52.593751,436.96876 56.352431,438.87624 59.65625,438.87624 C 64.582947,438.87625 65.4375,442.29389 65.4375,447.00124 L 65.46875,476.15625 C 65.468747,491.29383 78.763908,503.5625 95.125,503.5625 L 135.5,503.5625 C 138.46358,503.5625 141.12572,502.39463 142.9375,500.53125 z" display="inline" filter="url(#filter3291)" opacity=".175" transform="matrix(1.0484996,0,0,1.0484996,83.467541,-112.89106)"/><path id="path2620" fill="#000" fill-opacity=".08" fill-rule="evenodd" stroke="none" stroke-dasharray="none" stroke-dashoffset="0" stroke-linecap="butt" stroke-linejoin="miter" stroke-miterlimit="4" stroke-opacity="1" stroke-width="4.767" marker-end="none" marker-mid="none" marker-start="none" d="M 105.51844,438.54009 C 101.68173,438.54009 98.272696,439.96454 95.533603,442.73149 C 92.795878,445.49697 91.358403,448.94945 91.358413,452.8457 L 91.358413,472.54036 L 100.29137,472.54036 L 100.29137,452.8457 C 100.29137,451.35232 100.77865,450.18462 101.84492,449.10752 C 102.91469,448.02697 104.04752,447.53781 105.51844,447.53781 C 107.02019,447.53781 108.13602,448.02451 109.20813,449.10752 C 110.27441,450.18462 110.76169,451.35232 110.76169,452.8457 L 110.76169,472.54036 L 119.69466,472.54036 L 119.69466,452.8457 C 119.69466,451.35232 120.18194,450.18462 121.24822,449.10752 C 122.32033,448.02451 123.43616,447.53781 124.93793,447.53781 C 126.40886,447.53781 127.54166,448.02697 128.61143,449.10752 C 129.6777,450.18462 130.16499,451.35232 130.16499,452.8457 L 130.21354,475.85792 C 130.21354,480.76686 125.53868,484.9041 119.53283,484.9041 L 90.727281,484.79084 C 86.092574,484.79084 82.134153,480.27967 82.134153,474.48232 L 82.134153,431.14704 L 73.686691,431.14704 L 73.686691,476.14913 C 73.686691,480.92384 75.433872,485.11091 78.832855,488.49673 C 81.738048,491.36433 85.231929,493.06118 89.157544,493.481 L 89.157544,493.64291 L 121.23203,493.64291 C 126.16075,493.64291 130.49087,491.81026 133.98415,488.25387 L 134.00035,488.25387 C 136.97137,485.20142 138.70822,481.54389 139.13032,477.42763 L 139.09796,452.8457 C 139.09796,448.94945 137.66052,445.49697 134.92275,442.73149 C 132.18369,439.96454 128.77463,438.54009 124.93793,438.54009 C 121.17189,438.54009 117.8766,439.94051 115.212,442.50488 C 112.55519,439.94474 109.28292,438.54009 105.51844,438.54009 z" display="inline" enable-background="accumulate" filter="url(#filter3546)" overflow="visible" transform="matrix(1.0484996,0,0,1.0484996,83.467541,-112.89106)" visibility="visible" style="marker:none"/><path id="path4130" fill="#fff" fill-opacity="1" fill-rule="evenodd" stroke="none" stroke-dashoffset="0" stroke-linecap="butt" stroke-linejoin="miter" stroke-miterlimit="4" stroke-opacity="1" stroke-width="1" marker-end="none" marker-mid="none" marker-start="none" d="M 193.35561,347.16391 C 189.33282,347.16391 185.75845,348.65744 182.88651,351.55859 C 180.016,354.45819 178.50881,358.07812 178.50882,362.16333 L 178.50882,382.81318 L 187.87503,382.81318 L 187.87503,362.16333 C 187.87503,360.59753 188.38594,359.37319 189.50392,358.24385 C 190.62558,357.1109 191.81335,356.59801 193.35561,356.59801 C 194.93019,356.59801 196.10014,357.10832 197.22425,358.24385 C 198.34224,359.37319 198.85316,360.59753 198.85316,362.16333 L 198.85316,382.81318 L 208.21936,382.81318 L 208.21936,362.16333 C 208.21936,360.59753 208.73028,359.37319 209.84828,358.24385 C 210.97238,357.10832 212.14233,356.59801 213.71694,356.59801 C 215.25921,356.59801 216.44695,357.1109 217.56859,358.24385 C 218.68658,359.37319 219.1975,360.59753 219.1975,362.16333 L 219.2484,386.29164 C 219.2484,391.43866 214.34681,395.77655 208.04968,395.77655 L 177.84708,395.6578 C 172.98759,395.6578 168.83719,390.92784 168.83719,384.84932 L 168.83719,339.4123 L 159.98003,339.4123 L 159.98003,386.59697 C 159.98003,391.60325 161.81195,395.99339 165.37578,399.54343 C 168.42187,402.5501 172.08521,404.49909 176.2012,404.93927 L 209.8313,404.93919 C 214.99906,404.93919 219.53918,403.01766 223.20189,399.28879 L 223.21888,399.28879 C 226.33398,396.08829 228.15508,392.25338 228.59765,387.93748 L 228.56371,362.16333 C 228.56371,358.07812 227.05657,354.45819 224.18602,351.55859 C 221.31411,348.65744 217.73971,347.16391 213.71694,347.16391 C 209.76825,347.16391 206.31314,348.63225 203.5193,351.32099 C 200.73363,348.63668 197.30267,347.16391 193.35561,347.16391 z" display="inline" enable-background="accumulate" overflow="visible" visibility="visible" style="marker:none"/><path stroke-width="1" style="marker:none" id="path4132" fill="#52a800" fill-opacity="1" fill-rule="evenodd" stroke="none" stroke-dashoffset="0" stroke-linecap="butt" stroke-linejoin="miter" stroke-miterlimit="4" stroke-opacity="1" marker-end="none" marker-mid="none" marker-start="none" d="M 187.84765,395.68919 L 187.84765,404.93919 L 209.84765,404.93919 C 215.01539,404.93919 219.52869,403.01181 223.19139,399.28294 L 223.22265,399.28294 C 226.33776,396.08243 228.15508,392.25509 228.59765,387.93919 L 228.59765,382.68919 L 219.2539,382.68919 L 219.2539,386.28294 C 219.2539,391.42999 214.36352,395.75169 208.06639,395.75169 L 187.84765,395.68919 z" display="inline" enable-background="accumulate" opacity=".3" overflow="visible" visibility="visible"/><path id="path6141" fill="#fff" fill-opacity="1" fill-rule="evenodd" stroke="none" stroke-dashoffset="0" stroke-linecap="butt" stroke-linejoin="miter" stroke-miterlimit="4" stroke-opacity="1" stroke-width="1" marker-end="none" marker-mid="none" marker-start="none" d="M 182.74092,423.66488 C 161.4508,423.66488 142.97513,407.52496 142.97513,386.25392 L 142.956,360.42629 L 142.956,353.84026 L 129.45825,353.84026 L 129.45825,321.02431 L 186.3786,321.29237 L 204.18418,321.33068 C 225.49343,321.33068 243.94996,337.45139 243.94996,358.74153 L 243.94996,423.66488 L 182.74092,423.66488 L 182.74092,423.66488 L 182.74092,423.66488 z M 235.27688,406.24921 C 235.27688,392.10579 235.27688,358.74153 235.27688,358.74153 C 235.27688,342.86978 221.35795,330.00376 204.18418,330.00376 L 186.35947,330.00376 L 186.35947,329.96546 L 138.15044,329.75481 L 138.15044,345.16718 C 138.15044,345.16718 140.08675,345.16718 143.55081,345.16718 C 147.21721,345.16718 151.62901,348.61265 151.62901,353.66876 L 151.66732,386.23492 C 151.66732,402.10668 165.58632,414.97268 182.74092,414.97268 L 225.09557,414.97268 C 230.52546,414.97268 235.27688,411.53397 235.27688,406.24921 z" display="inline" enable-background="accumulate" overflow="visible" visibility="visible" style="marker:none"/></g></g></svg>